<svg width="84" height="20" viewBox="0 0 84 20" fill="none" xmlns="http://www.w3.org/2000/svg">
<path d="M1.82605 15.5782V0.305455H4.71857V12.96H11.7307V15.5782H1.82605Z" fill="#CDD6F4"/>
<path d="M13.5713 15.5782V4.75636H16.3323V15.5782H13.5713ZM14.9518 3.49091C14.4551 3.49091 14.0314 3.33091 13.6808 3.01091C13.3448 2.69091 13.1768 2.26909 13.1768 1.74546C13.1768 1.22182 13.3448 0.800001 13.6808 0.48C14.0314 0.16 14.4551 0 14.9518 0C15.4631 0 15.8867 0.16 16.2227 0.48C16.5587 0.800001 16.7267 1.22182 16.7267 1.74546C16.7267 2.26909 16.5587 2.69091 16.2227 3.01091C15.8867 3.33091 15.4631 3.49091 14.9518 3.49091Z" fill="#CDD6F4"/>
<path d="M18.6469 10.2109V9.86182C18.6469 8.72727 18.8733 7.76 19.3262 6.96C19.7791 6.14546 20.378 5.52727 21.1231 5.10546C21.8827 4.66909 22.7081 4.45091 23.5992 4.45091C24.5926 4.45091 25.345 4.62545 25.8563 4.97455C26.3676 5.32364 26.7401 5.68727 26.9738 6.06546H27.3683V4.75636H30.0855V17.4982C30.0855 18.24 29.8664 18.8291 29.4281 19.2655C28.9898 19.7164 28.4055 19.9418 27.6751 19.9418H20.3999V17.5418H26.7109C27.1199 17.5418 27.3244 17.3236 27.3244 16.8873V14.0727H26.93C26.7839 14.3055 26.5794 14.5455 26.3164 14.7927C26.0535 15.0255 25.7029 15.2218 25.2646 15.3818C24.8264 15.5418 24.2712 15.6218 23.5992 15.6218C22.7081 15.6218 21.8827 15.4109 21.1231 14.9891C20.378 14.5527 19.7791 13.9345 19.3262 13.1345C18.8733 12.32 18.6469 11.3455 18.6469 10.2109ZM24.3881 13.2218C25.2354 13.2218 25.9439 12.9527 26.5137 12.4145C27.0834 11.8764 27.3683 11.12 27.3683 10.1455V9.92727C27.3683 8.93818 27.0834 8.18182 26.5137 7.65818C25.9585 7.12 25.25 6.85091 24.3881 6.85091C23.5408 6.85091 22.8323 7.12 22.2625 7.65818C21.6928 8.18182 21.4079 8.93818 21.4079 9.92727V10.1455C21.4079 11.12 21.6928 11.8764 22.2625 12.4145C22.8323 12.9527 23.5408 13.2218 24.3881 13.2218Z" fill="#CDD6F4"/>
<path d="M32.8695 15.5782V0.305455H35.762V6.61091H41.4594V0.305455H44.352V15.5782H41.4594V9.22909H35.762V15.5782H32.8695Z" fill="#A6ADC8"/>
<path d="M50.5807 15.5782V2.92364H46.1105V0.305455H57.9435V2.92364H53.4733V15.5782H50.5807Z" fill="#A6ADC8"/>
<path d="M63.2441 15.5782V2.92364H58.7738V0.305455H70.6069V2.92364H66.1366V15.5782H63.2441Z" fill="#A6ADC8"/>
<path d="M72.3575 15.5782V0.305455H78.6685C79.6327 0.305455 80.48 0.501818 81.2104 0.894546C81.9554 1.27273 82.5325 1.81091 82.9415 2.50909C83.3652 3.20727 83.577 4.03636 83.577 4.99636V5.30182C83.577 6.24727 83.3579 7.07636 82.9196 7.78909C82.496 8.48727 81.9116 9.03273 81.1666 9.42546C80.4361 9.80364 79.6034 9.99273 78.6685 9.99273H75.25V15.5782H72.3575ZM75.25 7.37455H78.3836C79.0702 7.37455 79.6253 7.18546 80.049 6.80727C80.4727 6.42909 80.6845 5.91273 80.6845 5.25818V5.04C80.6845 4.38546 80.4727 3.86909 80.049 3.49091C79.6253 3.11273 79.0702 2.92364 78.3836 2.92364H75.25V7.37455Z" fill="#A6ADC8"/>
</svg>
