<svg width="64" height="17" viewBox="0 0 64 17" fill="none" xmlns="http://www.w3.org/2000/svg">
<path d="M0 9.34691V0.183273H1.72174V7.776H5.89565V9.34691H0Z" fill="#CDD6F4"/>
<path d="M6.9912 9.34691V2.85382H8.63468V9.34691H6.9912ZM7.81294 2.09455C7.51729 2.09455 7.26512 1.99855 7.05642 1.80655C6.85642 1.61455 6.75642 1.36145 6.75642 1.04727C6.75642 0.733091 6.85642 0.48 7.05642 0.288C7.26512 0.0960001 7.51729 0 7.81294 0C8.11729 0 8.36946 0.0960001 8.56946 0.288C8.76946 0.48 8.86946 0.733091 8.86946 1.04727C8.86946 1.36145 8.76946 1.61455 8.56946 1.80655C8.36946 1.99855 8.11729 2.09455 7.81294 2.09455Z" fill="#CDD6F4"/>
<path d="M10.0124 6.12655V5.91709C10.0124 5.23636 10.1472 4.656 10.4167 4.176C10.6863 3.68727 11.0428 3.31636 11.4863 3.06327C11.9385 2.80145 12.4298 2.67055 12.9602 2.67055C13.5515 2.67055 13.9994 2.77527 14.3037 2.98473C14.6081 3.19418 14.8298 3.41236 14.9689 3.63927H15.2037V2.85382H16.8211V10.4989C16.8211 10.944 16.6907 11.2975 16.4298 11.5593C16.1689 11.8298 15.8211 11.9651 15.3863 11.9651H11.0559V10.5251H14.8124C15.0559 10.5251 15.1776 10.3942 15.1776 10.1324V8.44364H14.9428C14.8559 8.58327 14.7341 8.72727 14.5776 8.87564C14.4211 9.01527 14.2124 9.13309 13.9515 9.22909C13.6907 9.32509 13.3602 9.37309 12.9602 9.37309C12.4298 9.37309 11.9385 9.24655 11.4863 8.99345C11.0428 8.73164 10.6863 8.36073 10.4167 7.88073C10.1472 7.392 10.0124 6.80727 10.0124 6.12655ZM13.4298 7.93309C13.9341 7.93309 14.3559 7.77164 14.695 7.44873C15.0341 7.12582 15.2037 6.672 15.2037 6.08727V5.95636C15.2037 5.36291 15.0341 4.90909 14.695 4.59491C14.3646 4.272 13.9428 4.11055 13.4298 4.11055C12.9254 4.11055 12.5037 4.272 12.1646 4.59491C11.8254 4.90909 11.6559 5.36291 11.6559 5.95636V6.08727C11.6559 6.672 11.8254 7.12582 12.1646 7.44873C12.5037 7.77164 12.9254 7.93309 13.4298 7.93309Z" fill="#CDD6F4"/>
<path d="M18.4783 9.34691V0.183273H20.2V3.96655H23.5913V0.183273H25.313V9.34691H23.5913V5.53746H20.2V9.34691H18.4783Z" fill="#A6ADC8"/>
<path d="M29.0207 9.34691V1.75418H26.3598V0.183273H33.4033V1.75418H30.7424V9.34691H29.0207Z" fill="#A6ADC8"/>
<path d="M36.5584 9.34691V1.75418H33.8975V0.183273H40.941V1.75418H38.2801V9.34691H36.5584Z" fill="#A6ADC8"/>
<path d="M41.983 9.34691V0.183273H45.7395C46.3134 0.183273 46.8178 0.301091 47.2526 0.536727C47.6961 0.763637 48.0395 1.08655 48.283 1.50545C48.5352 1.92436 48.6613 2.42182 48.6613 2.99782V3.18109C48.6613 3.74836 48.5308 4.24582 48.27 4.67346C48.0178 5.09236 47.67 5.41964 47.2265 5.65527C46.7917 5.88218 46.2961 5.99564 45.7395 5.99564H43.7048V9.34691H41.983ZM43.7048 4.42473H45.57C45.9787 4.42473 46.3091 4.31127 46.5613 4.08436C46.8135 3.85746 46.9395 3.54764 46.9395 3.15491V3.024C46.9395 2.63127 46.8135 2.32146 46.5613 2.09455C46.3091 1.86764 45.9787 1.75418 45.57 1.75418H43.7048V4.42473Z" fill="#A6ADC8"/>
<path d="M0.320007 16V13.2H0.960007L1.70401 15.788H1.75601L2.50001 13.2H3.14001V16H2.81601V13.42H2.76001L2.02001 16H1.44001L0.700007 13.42H0.644007V16H0.320007Z" fill="#9399B2"/>
<path d="M4.39294 16.056C4.25694 16.056 4.13294 16.032 4.02094 15.984C3.90894 15.936 3.82094 15.8667 3.75694 15.776C3.69294 15.6853 3.66094 15.5747 3.66094 15.444C3.66094 15.3107 3.69294 15.2013 3.75694 15.116C3.82094 15.028 3.90894 14.9627 4.02094 14.92C4.13294 14.8747 4.25828 14.852 4.39694 14.852H5.05694V14.708C5.05694 14.5693 5.01561 14.46 4.93294 14.38C4.85294 14.3 4.73295 14.26 4.57295 14.26C4.41561 14.26 4.29294 14.2987 4.20494 14.376C4.11694 14.4507 4.05694 14.552 4.02494 14.68L3.72894 14.584C3.76094 14.4747 3.81161 14.376 3.88094 14.288C3.95028 14.1973 4.04228 14.1253 4.15694 14.072C4.27428 14.016 4.41428 13.988 4.57694 13.988C4.82761 13.988 5.02228 14.0533 5.16094 14.184C5.29961 14.312 5.36895 14.4933 5.36895 14.728V15.612C5.36895 15.692 5.40628 15.732 5.48094 15.732H5.66094V16H5.38494C5.29694 16 5.22628 15.976 5.17295 15.928C5.11961 15.8773 5.09295 15.8107 5.09295 15.728V15.708H5.04494C5.01561 15.7587 4.97561 15.812 4.92494 15.868C4.87694 15.9213 4.81028 15.9653 4.72495 16C4.63961 16.0373 4.52894 16.056 4.39294 16.056ZM4.42895 15.784C4.61561 15.784 4.76628 15.7293 4.88094 15.62C4.99828 15.508 5.05694 15.352 5.05694 15.152V15.108H4.40895C4.28361 15.108 4.17961 15.136 4.09694 15.192C4.01694 15.2453 3.97694 15.3267 3.97694 15.436C3.97694 15.5453 4.01828 15.6307 4.10094 15.692C4.18628 15.7533 4.29561 15.784 4.42895 15.784Z" fill="#9399B2"/>
<path d="M6.09373 16V13.2H6.40973V14.848H6.46573L7.36173 14.044H7.80173L6.71773 14.996L7.83373 16H7.39773L6.46573 15.148H6.40973V16H6.09373Z" fill="#9399B2"/>
<path d="M9.0366 16.056C8.83927 16.056 8.66593 16.0147 8.5166 15.932C8.36727 15.8467 8.25127 15.728 8.1686 15.576C8.08593 15.424 8.0446 15.248 8.0446 15.048V15C8.0446 14.7973 8.08593 14.62 8.1686 14.468C8.25127 14.316 8.36593 14.1987 8.5126 14.116C8.65927 14.0307 8.82727 13.988 9.0166 13.988C9.2006 13.988 9.36327 14.028 9.5046 14.108C9.64593 14.1853 9.7566 14.2973 9.8366 14.444C9.9166 14.5907 9.9566 14.7627 9.9566 14.96V15.104H8.3606C8.3686 15.3147 8.4366 15.48 8.5646 15.6C8.6926 15.7173 8.8526 15.776 9.0446 15.776C9.2126 15.776 9.34193 15.7373 9.4326 15.66C9.52327 15.5827 9.5926 15.4907 9.6406 15.384L9.9126 15.516C9.8726 15.5987 9.8166 15.6813 9.7446 15.764C9.67527 15.8467 9.58327 15.916 9.4686 15.972C9.3566 16.028 9.2126 16.056 9.0366 16.056ZM8.3646 14.844H9.6366C9.62593 14.6627 9.56327 14.5213 9.4486 14.42C9.3366 14.3187 9.1926 14.268 9.0166 14.268C8.83793 14.268 8.69127 14.3187 8.5766 14.42C8.46193 14.5213 8.39127 14.6627 8.3646 14.844Z" fill="#9399B2"/>
<path d="M11.5351 16V14.044H11.8431V14.284H11.8991C11.9338 14.1987 11.9871 14.136 12.0591 14.096C12.1311 14.056 12.2258 14.036 12.3431 14.036H12.5751V14.324H12.3231C12.1818 14.324 12.0671 14.364 11.9791 14.444C11.8938 14.5213 11.8511 14.6427 11.8511 14.808V16H11.5351Z" fill="#9399B2"/>
<path d="M13.8686 16.056C13.6713 16.056 13.498 16.0147 13.3486 15.932C13.1993 15.8467 13.0833 15.728 13.0006 15.576C12.918 15.424 12.8766 15.248 12.8766 15.048V15C12.8766 14.7973 12.918 14.62 13.0006 14.468C13.0833 14.316 13.198 14.1987 13.3446 14.116C13.4913 14.0307 13.6593 13.988 13.8486 13.988C14.0326 13.988 14.1953 14.028 14.3366 14.108C14.478 14.1853 14.5886 14.2973 14.6686 14.444C14.7486 14.5907 14.7886 14.7627 14.7886 14.96V15.104H13.1926C13.2006 15.3147 13.2686 15.48 13.3966 15.6C13.5246 15.7173 13.6846 15.776 13.8766 15.776C14.0446 15.776 14.174 15.7373 14.2646 15.66C14.3553 15.5827 14.4246 15.4907 14.4726 15.384L14.7446 15.516C14.7046 15.5987 14.6486 15.6813 14.5766 15.764C14.5073 15.8467 14.4153 15.916 14.3006 15.972C14.1886 16.028 14.0446 16.056 13.8686 16.056ZM13.1966 14.844H14.4686C14.458 14.6627 14.3953 14.5213 14.2806 14.42C14.1686 14.3187 14.0246 14.268 13.8486 14.268C13.67 14.268 13.5233 14.3187 13.4086 14.42C13.294 14.5213 13.2233 14.6627 13.1966 14.844Z" fill="#9399B2"/>
<path d="M16.9358 16.8V15.692H16.8798C16.8478 15.7507 16.8025 15.808 16.7438 15.864C16.6852 15.92 16.6078 15.9653 16.5118 16C16.4185 16.0373 16.3038 16.056 16.1678 16.056C15.9972 16.056 15.8412 16.016 15.6998 15.936C15.5612 15.856 15.4505 15.74 15.3678 15.588C15.2852 15.436 15.2438 15.256 15.2438 15.048V14.996C15.2438 14.7853 15.2852 14.6053 15.3678 14.456C15.4505 14.3067 15.5625 14.192 15.7038 14.112C15.8452 14.0293 15.9998 13.988 16.1678 13.988C16.3705 13.988 16.5278 14.0267 16.6398 14.104C16.7518 14.1813 16.8345 14.2693 16.8878 14.368H16.9438V14.044H17.2518V16.8H16.9358ZM16.2518 15.776C16.4545 15.776 16.6185 15.712 16.7438 15.584C16.8718 15.4533 16.9358 15.272 16.9358 15.04V15.004C16.9358 14.772 16.8718 14.592 16.7438 14.464C16.6185 14.3333 16.4545 14.268 16.2518 14.268C16.0518 14.268 15.8865 14.3333 15.7558 14.464C15.6278 14.592 15.5638 14.772 15.5638 15.004V15.04C15.5638 15.272 15.6278 15.4533 15.7558 15.584C15.8865 15.712 16.0518 15.776 16.2518 15.776Z" fill="#9399B2"/>
<path d="M18.662 16.036C18.5207 16.036 18.39 16.0053 18.27 15.944C18.1527 15.8827 18.0594 15.792 17.99 15.672C17.9234 15.5493 17.89 15.4013 17.89 15.228V14.044H18.206V15.204C18.206 15.3987 18.254 15.54 18.35 15.628C18.4487 15.716 18.5807 15.76 18.746 15.76C18.9327 15.76 19.086 15.6987 19.206 15.576C19.326 15.4533 19.386 15.2707 19.386 15.028V14.044H19.702V16H19.394V15.668H19.338C19.2954 15.7613 19.222 15.8467 19.118 15.924C19.014 15.9987 18.862 16.036 18.662 16.036Z" fill="#9399B2"/>
<path d="M21.2593 16.056C21.0619 16.056 20.8886 16.0147 20.7393 15.932C20.5899 15.8467 20.4739 15.728 20.3913 15.576C20.3086 15.424 20.2673 15.248 20.2673 15.048V15C20.2673 14.7973 20.3086 14.62 20.3913 14.468C20.4739 14.316 20.5886 14.1987 20.7353 14.116C20.8819 14.0307 21.0499 13.988 21.2393 13.988C21.4233 13.988 21.5859 14.028 21.7273 14.108C21.8686 14.1853 21.9793 14.2973 22.0593 14.444C22.1393 14.5907 22.1793 14.7627 22.1793 14.96V15.104H20.5833C20.5913 15.3147 20.6593 15.48 20.7873 15.6C20.9153 15.7173 21.0753 15.776 21.2673 15.776C21.4353 15.776 21.5646 15.7373 21.6553 15.66C21.7459 15.5827 21.8153 15.4907 21.8633 15.384L22.1353 15.516C22.0953 15.5987 22.0393 15.6813 21.9673 15.764C21.8979 15.8467 21.8059 15.916 21.6913 15.972C21.5793 16.028 21.4353 16.056 21.2593 16.056ZM20.5873 14.844H21.8593C21.8486 14.6627 21.7859 14.5213 21.6713 14.42C21.5593 14.3187 21.4153 14.268 21.2393 14.268C21.0606 14.268 20.9139 14.3187 20.7993 14.42C20.6846 14.5213 20.6139 14.6627 20.5873 14.844Z" fill="#9399B2"/>
<path d="M23.5184 16.056C23.2758 16.056 23.0704 16 22.9024 15.888C22.7371 15.776 22.6371 15.5987 22.6024 15.356L22.9024 15.288C22.9238 15.416 22.9638 15.5173 23.0224 15.592C23.0811 15.664 23.1531 15.716 23.2384 15.748C23.3264 15.7773 23.4198 15.792 23.5184 15.792C23.6651 15.792 23.7811 15.7627 23.8664 15.704C23.9518 15.6453 23.9944 15.5667 23.9944 15.468C23.9944 15.3667 23.9531 15.296 23.8704 15.256C23.7904 15.2133 23.6798 15.1787 23.5384 15.152L23.3744 15.124C23.2491 15.1027 23.1344 15.0693 23.0304 15.024C22.9264 14.9787 22.8438 14.9173 22.7824 14.84C22.7211 14.7627 22.6904 14.6653 22.6904 14.548C22.6904 14.372 22.7584 14.2347 22.8944 14.136C23.0304 14.0373 23.2104 13.988 23.4344 13.988C23.6558 13.988 23.8344 14.0387 23.9704 14.14C24.1091 14.2387 24.1984 14.3787 24.2384 14.56L23.9424 14.636C23.9184 14.4947 23.8611 14.396 23.7704 14.34C23.6798 14.2813 23.5678 14.252 23.4344 14.252C23.3011 14.252 23.1958 14.2773 23.1184 14.328C23.0411 14.376 23.0024 14.448 23.0024 14.544C23.0024 14.6373 23.0384 14.7067 23.1104 14.752C23.1851 14.7947 23.2838 14.8267 23.4064 14.848L23.5704 14.876C23.7091 14.9 23.8331 14.9333 23.9424 14.976C24.0544 15.016 24.1424 15.0747 24.2064 15.152C24.2731 15.2293 24.3064 15.3307 24.3064 15.456C24.3064 15.648 24.2344 15.796 24.0904 15.9C23.9491 16.004 23.7584 16.056 23.5184 16.056Z" fill="#9399B2"/>
<path d="M25.5169 16C25.4049 16 25.3182 15.9693 25.2569 15.908C25.1982 15.8467 25.1689 15.7627 25.1689 15.656V14.32H24.5809V14.044H25.1689V13.348H25.4849V14.044H26.1249V14.32H25.4849V15.608C25.4849 15.688 25.5235 15.728 25.6009 15.728H26.0369V16H25.5169Z" fill="#9399B2"/>
<path d="M27.664 16V13.2H27.98V16H27.664Z" fill="#9399B2"/>
<path d="M28.6445 16V14.044H28.9605V16H28.6445ZM28.8045 13.74C28.7352 13.74 28.6765 13.7173 28.6285 13.672C28.5832 13.6267 28.5605 13.5693 28.5605 13.5C28.5605 13.428 28.5832 13.3693 28.6285 13.324C28.6765 13.2787 28.7352 13.256 28.8045 13.256C28.8738 13.256 28.9312 13.2787 28.9765 13.324C29.0218 13.3693 29.0445 13.428 29.0445 13.5C29.0445 13.5693 29.0218 13.6267 28.9765 13.672C28.9312 13.7173 28.8738 13.74 28.8045 13.74Z" fill="#9399B2"/>
<path d="M29.529 15.032V14.976C29.529 14.7707 29.5703 14.5947 29.653 14.448C29.7356 14.3013 29.8476 14.188 29.989 14.108C30.1303 14.028 30.285 13.988 30.453 13.988C30.6583 13.988 30.8156 14.028 30.925 14.108C31.037 14.1853 31.1196 14.272 31.173 14.368H31.229V14.044H31.529V16.456C31.529 16.5627 31.4996 16.6467 31.441 16.708C31.3823 16.7693 31.297 16.8 31.185 16.8H29.857V16.52H31.101C31.181 16.52 31.221 16.48 31.221 16.4V15.656H31.165C31.133 15.7147 31.0876 15.772 31.029 15.828C30.9703 15.884 30.8943 15.9307 30.801 15.968C30.7076 16.0027 30.5916 16.02 30.453 16.02C30.285 16.02 30.1303 15.98 29.989 15.9C29.8476 15.82 29.7356 15.7067 29.653 15.56C29.5703 15.4107 29.529 15.2347 29.529 15.032ZM30.537 15.74C30.7396 15.74 30.9036 15.676 31.029 15.548C31.157 15.42 31.221 15.244 31.221 15.02V14.988C31.221 14.7613 31.157 14.5853 31.029 14.46C30.9036 14.332 30.7396 14.268 30.537 14.268C30.337 14.268 30.1716 14.332 30.041 14.46C29.913 14.5853 29.849 14.7613 29.849 14.988V15.02C29.849 15.244 29.913 15.42 30.041 15.548C30.1716 15.676 30.337 15.74 30.537 15.74Z" fill="#9399B2"/>
<path d="M32.1914 16V13.2H32.5074V14.356H32.5634C32.59 14.2973 32.6301 14.2427 32.6834 14.192C32.7394 14.1387 32.81 14.0947 32.8954 14.06C32.9834 14.0253 33.094 14.008 33.2274 14.008C33.374 14.008 33.5047 14.04 33.6194 14.104C33.7367 14.1653 33.8301 14.256 33.8994 14.376C33.9687 14.4933 34.0034 14.64 34.0034 14.816V16H33.6874V14.84C33.6874 14.6453 33.638 14.504 33.5394 14.416C33.4434 14.328 33.3127 14.284 33.1474 14.284C32.958 14.284 32.8034 14.3453 32.6834 14.468C32.5661 14.5907 32.5074 14.7733 32.5074 15.016V16H32.1914Z" fill="#9399B2"/>
<path d="M35.3098 16C35.1978 16 35.1112 15.9693 35.0498 15.908C34.9912 15.8467 34.9618 15.7627 34.9618 15.656V14.32H34.3738V14.044H34.9618V13.348H35.2778V14.044H35.9178V14.32H35.2778V15.608C35.2778 15.688 35.3165 15.728 35.3938 15.728H35.8298V16H35.3098Z" fill="#9399B2"/>
<path d="M37.2554 16.056C37.058 16.056 36.8847 16.0147 36.7354 15.932C36.586 15.8467 36.47 15.728 36.3874 15.576C36.3047 15.424 36.2634 15.248 36.2634 15.048V15C36.2634 14.7973 36.3047 14.62 36.3874 14.468C36.47 14.316 36.5847 14.1987 36.7313 14.116C36.878 14.0307 37.046 13.988 37.2354 13.988C37.4194 13.988 37.582 14.028 37.7234 14.108C37.8647 14.1853 37.9754 14.2973 38.0554 14.444C38.1354 14.5907 38.1754 14.7627 38.1754 14.96V15.104H36.5793C36.5873 15.3147 36.6554 15.48 36.7834 15.6C36.9114 15.7173 37.0714 15.776 37.2634 15.776C37.4314 15.776 37.5607 15.7373 37.6514 15.66C37.742 15.5827 37.8114 15.4907 37.8594 15.384L38.1314 15.516C38.0914 15.5987 38.0354 15.6813 37.9634 15.764C37.894 15.8467 37.802 15.916 37.6874 15.972C37.5754 16.028 37.4314 16.056 37.2554 16.056ZM36.5834 14.844H37.8554C37.8447 14.6627 37.782 14.5213 37.6674 14.42C37.5554 14.3187 37.4114 14.268 37.2354 14.268C37.0567 14.268 36.91 14.3187 36.7954 14.42C36.6807 14.5213 36.61 14.6627 36.5834 14.844Z" fill="#9399B2"/>
<path d="M38.7265 16V14.044H39.0345V14.284H39.0905C39.1252 14.1987 39.1785 14.136 39.2505 14.096C39.3225 14.056 39.4172 14.036 39.5345 14.036H39.7665V14.324H39.5145C39.3732 14.324 39.2585 14.364 39.1705 14.444C39.0852 14.5213 39.0425 14.6427 39.0425 14.808V16H38.7265Z" fill="#9399B2"/>
<path d="M41.9817 16C41.8697 16 41.783 15.9693 41.7217 15.908C41.663 15.8467 41.6337 15.7627 41.6337 15.656V14.32H41.0457V14.044H41.6337V13.348H41.9497V14.044H42.5897V14.32H41.9497V15.608C41.9497 15.688 41.9884 15.728 42.0657 15.728H42.5017V16H41.9817Z" fill="#9399B2"/>
<path d="M43.1015 16V13.2H43.4175V14.356H43.4735C43.5002 14.2973 43.5402 14.2427 43.5935 14.192C43.6495 14.1387 43.7202 14.0947 43.8055 14.06C43.8935 14.0253 44.0042 14.008 44.1375 14.008C44.2842 14.008 44.4149 14.04 44.5295 14.104C44.6469 14.1653 44.7402 14.256 44.8095 14.376C44.8789 14.4933 44.9135 14.64 44.9135 14.816V16H44.5975V14.84C44.5975 14.6453 44.5482 14.504 44.4495 14.416C44.3535 14.328 44.2229 14.284 44.0575 14.284C43.8682 14.284 43.7135 14.3453 43.5935 14.468C43.4762 14.5907 43.4175 14.7733 43.4175 15.016V16H43.1015Z" fill="#9399B2"/>
<path d="M46.1547 16.056C46.0187 16.056 45.8947 16.032 45.7827 15.984C45.6707 15.936 45.5827 15.8667 45.5187 15.776C45.4547 15.6853 45.4227 15.5747 45.4227 15.444C45.4227 15.3107 45.4547 15.2013 45.5187 15.116C45.5827 15.028 45.6707 14.9627 45.7827 14.92C45.8947 14.8747 46.02 14.852 46.1587 14.852H46.8187V14.708C46.8187 14.5693 46.7773 14.46 46.6947 14.38C46.6147 14.3 46.4947 14.26 46.3347 14.26C46.1773 14.26 46.0547 14.2987 45.9667 14.376C45.8787 14.4507 45.8187 14.552 45.7867 14.68L45.4907 14.584C45.5227 14.4747 45.5733 14.376 45.6427 14.288C45.712 14.1973 45.804 14.1253 45.9187 14.072C46.036 14.016 46.176 13.988 46.3387 13.988C46.5893 13.988 46.784 14.0533 46.9227 14.184C47.0613 14.312 47.1307 14.4933 47.1307 14.728V15.612C47.1307 15.692 47.168 15.732 47.2427 15.732H47.4227V16H47.1467C47.0587 16 46.988 15.976 46.9347 15.928C46.8813 15.8773 46.8547 15.8107 46.8547 15.728V15.708H46.8067C46.7773 15.7587 46.7373 15.812 46.6867 15.868C46.6387 15.9213 46.572 15.9653 46.4867 16C46.4013 16.0373 46.2907 16.056 46.1547 16.056ZM46.1907 15.784C46.3773 15.784 46.528 15.7293 46.6427 15.62C46.76 15.508 46.8187 15.352 46.8187 15.152V15.108H46.1707C46.0453 15.108 45.9413 15.136 45.8587 15.192C45.7787 15.2453 45.7387 15.3267 45.7387 15.436C45.7387 15.5453 45.78 15.6307 45.8627 15.692C45.948 15.7533 46.0573 15.784 46.1907 15.784Z" fill="#9399B2"/>
<path d="M47.8554 16V14.044H48.1634V14.376H48.2194C48.2621 14.2827 48.3341 14.1987 48.4354 14.124C48.5394 14.0467 48.6914 14.008 48.8914 14.008C49.0381 14.008 49.1688 14.0387 49.2834 14.1C49.4008 14.1613 49.4941 14.252 49.5634 14.372C49.6328 14.492 49.6674 14.64 49.6674 14.816V16H49.3514V14.84C49.3514 14.6453 49.3021 14.504 49.2034 14.416C49.1074 14.328 48.9768 14.284 48.8114 14.284C48.6221 14.284 48.4674 14.3453 48.3474 14.468C48.2301 14.5907 48.1714 14.7733 48.1714 15.016V16H47.8554Z" fill="#9399B2"/>
<path d="M52.4199 16.056C52.2172 16.056 52.0586 16.0173 51.9439 15.94C51.8319 15.8627 51.7506 15.7747 51.6999 15.676H51.6439V16H51.3359V13.2H51.6519V14.352H51.7079C51.7399 14.2907 51.7852 14.2333 51.8439 14.18C51.9026 14.124 51.9786 14.0787 52.0719 14.044C52.1679 14.0067 52.2839 13.988 52.4199 13.988C52.5906 13.988 52.7452 14.0293 52.8839 14.112C53.0252 14.192 53.1372 14.308 53.2199 14.46C53.3026 14.6093 53.3439 14.788 53.3439 14.996V15.048C53.3439 15.256 53.3012 15.436 53.2159 15.588C53.1332 15.74 53.0212 15.856 52.8799 15.936C52.7412 16.016 52.5879 16.056 52.4199 16.056ZM52.3359 15.776C52.5386 15.776 52.7026 15.712 52.8279 15.584C52.9559 15.4533 53.0199 15.272 53.0199 15.04V15.004C53.0199 14.772 52.9559 14.592 52.8279 14.464C52.7026 14.3333 52.5386 14.268 52.3359 14.268C52.1359 14.268 51.9706 14.3333 51.8399 14.464C51.7119 14.592 51.6479 14.772 51.6479 15.004V15.04C51.6479 15.272 51.7119 15.4533 51.8399 15.584C51.9706 15.712 52.1359 15.776 52.3359 15.776Z" fill="#9399B2"/>
<path d="M54.8061 16.056C54.6088 16.056 54.4355 16.0147 54.2861 15.932C54.1368 15.8467 54.0208 15.728 53.9381 15.576C53.8555 15.424 53.8141 15.248 53.8141 15.048V15C53.8141 14.7973 53.8555 14.62 53.9381 14.468C54.0208 14.316 54.1355 14.1987 54.2821 14.116C54.4288 14.0307 54.5968 13.988 54.7861 13.988C54.9701 13.988 55.1328 14.028 55.2741 14.108C55.4155 14.1853 55.5261 14.2973 55.6061 14.444C55.6861 14.5907 55.7261 14.7627 55.7261 14.96V15.104H54.1301C54.1381 15.3147 54.2061 15.48 54.3341 15.6C54.4621 15.7173 54.6221 15.776 54.8141 15.776C54.9821 15.776 55.1115 15.7373 55.2021 15.66C55.2928 15.5827 55.3621 15.4907 55.4101 15.384L55.6821 15.516C55.6421 15.5987 55.5861 15.6813 55.5141 15.764C55.4448 15.8467 55.3528 15.916 55.2381 15.972C55.1261 16.028 54.9821 16.056 54.8061 16.056ZM54.1341 14.844H55.4061C55.3955 14.6627 55.3328 14.5213 55.2181 14.42C55.1061 14.3187 54.9621 14.268 54.7861 14.268C54.6075 14.268 54.4608 14.3187 54.3461 14.42C54.2315 14.5213 54.1608 14.6627 54.1341 14.844Z" fill="#9399B2"/>
<path d="M56.5793 16V14.32H55.9793V14.044H56.5793V13.544C56.5793 13.4373 56.6086 13.3533 56.6673 13.292C56.7286 13.2307 56.8153 13.2 56.9273 13.2H57.4193V13.472H57.0153C56.9353 13.472 56.8953 13.512 56.8953 13.592V14.044H57.5113V14.32H56.8953V16H56.5793Z" fill="#9399B2"/>
<path d="M58.7712 16.056C58.5738 16.056 58.3992 16.0147 58.2472 15.932C58.0978 15.8493 57.9805 15.7333 57.8952 15.584C57.8125 15.432 57.7712 15.2533 57.7712 15.048V14.996C57.7712 14.7933 57.8125 14.616 57.8952 14.464C57.9805 14.312 58.0978 14.1947 58.2472 14.112C58.3992 14.0293 58.5738 13.988 58.7712 13.988C58.9685 13.988 59.1418 14.0293 59.2912 14.112C59.4432 14.1947 59.5605 14.312 59.6432 14.464C59.7285 14.616 59.7712 14.7933 59.7712 14.996V15.048C59.7712 15.2533 59.7285 15.432 59.6432 15.584C59.5605 15.7333 59.4432 15.8493 59.2912 15.932C59.1418 16.0147 58.9685 16.056 58.7712 16.056ZM58.7712 15.772C58.9792 15.772 59.1445 15.7067 59.2672 15.576C59.3925 15.4427 59.4552 15.264 59.4552 15.04V15.004C59.4552 14.78 59.3925 14.6027 59.2672 14.472C59.1445 14.3387 58.9792 14.272 58.7712 14.272C58.5658 14.272 58.4005 14.3387 58.2752 14.472C58.1498 14.6027 58.0872 14.78 58.0872 15.004V15.04C58.0872 15.264 58.1498 15.4427 58.2752 15.576C58.4005 15.7067 58.5658 15.772 58.7712 15.772Z" fill="#9399B2"/>
<path d="M60.3398 16V14.044H60.6478V14.284H60.7038C60.7385 14.1987 60.7918 14.136 60.8638 14.096C60.9358 14.056 61.0305 14.036 61.1478 14.036H61.3798V14.324H61.1278C60.9865 14.324 60.8718 14.364 60.7838 14.444C60.6985 14.5213 60.6558 14.6427 60.6558 14.808V16H60.3398Z" fill="#9399B2"/>
<path d="M62.6733 16.056C62.476 16.056 62.3027 16.0147 62.1533 15.932C62.004 15.8467 61.888 15.728 61.8053 15.576C61.7227 15.424 61.6813 15.248 61.6813 15.048V15C61.6813 14.7973 61.7227 14.62 61.8053 14.468C61.888 14.316 62.0027 14.1987 62.1493 14.116C62.296 14.0307 62.464 13.988 62.6533 13.988C62.8373 13.988 63 14.028 63.1413 14.108C63.2827 14.1853 63.3933 14.2973 63.4733 14.444C63.5533 14.5907 63.5933 14.7627 63.5933 14.96V15.104H61.9973C62.0053 15.3147 62.0733 15.48 62.2013 15.6C62.3293 15.7173 62.4893 15.776 62.6813 15.776C62.8493 15.776 62.9787 15.7373 63.0693 15.66C63.16 15.5827 63.2293 15.4907 63.2773 15.384L63.5493 15.516C63.5093 15.5987 63.4533 15.6813 63.3813 15.764C63.312 15.8467 63.22 15.916 63.1053 15.972C62.9933 16.028 62.8493 16.056 62.6733 16.056ZM62.0013 14.844H63.2733C63.2627 14.6627 63.2 14.5213 63.0853 14.42C62.9733 14.3187 62.8293 14.268 62.6533 14.268C62.4747 14.268 62.328 14.3187 62.2133 14.42C62.0987 14.5213 62.028 14.6627 62.0013 14.844Z" fill="#9399B2"/>
</svg>
